<svg width="98" height="35" viewBox="0 0 98 35" fill="none" xmlns="http://www.w3.org/2000/svg">
<g clip-path="url(#clip0_570_9)">
<path fill-rule="evenodd" clip-rule="evenodd" d="M25 30C26.3132 30 27.6136 29.7413 28.8268 29.2388C30.0401 28.7362 31.1425 27.9997 32.0711 27.0711C32.9997 26.1425 33.7362 25.0401 34.2388 23.8268C34.7413 22.6136 35 21.3132 35 20C35 16.0218 33.4196 12.2064 30.6066 9.3934C27.7936 6.58035 23.9782 5 20 5C16.0218 5 12.2064 6.58035 9.3934 9.3934C6.58035 12.2064 5 16.0218 5 20C5 21.3132 5.25866 22.6136 5.7612 23.8268C6.26375 25.0401 7.00035 26.1425 7.92893 27.0711C8.85752 27.9997 9.95991 28.7362 11.1732 29.2388C12.3864 29.7413 13.6868 30 15 30H25ZM20 9C17.0826 9 14.2847 10.1589 12.2218 12.2218C10.1589 14.2847 9 17.0826 9 20C9 20.7879 9.15519 21.5681 9.45672 22.2961C9.75825 23.0241 10.2002 23.6855 10.7574 24.2426C11.3145 24.7998 11.9759 25.2417 12.7039 25.5433C13.4319 25.8448 14.2121 26 15 26H25C25.7879 26 26.5681 25.8448 27.2961 25.5433C28.0241 25.2417 28.6855 24.7998 29.2426 24.2426C29.7998 23.6855 30.2417 23.0241 30.5433 22.2961C30.8448 21.5681 31 20.7879 31 20C31 17.0826 29.8411 14.2847 27.7782 12.2218C25.7153 10.1589 22.9174 9 20 9Z" fill="#F29C33"/>
<path fill-rule="evenodd" clip-rule="evenodd" d="M13 35C11.2928 35 9.60238 34.612 8.02512 33.8582C6.44792 33.1044 5.0148 31.9995 3.80761 30.6066C2.60047 29.2137 1.64289 27.5602 0.989566 25.7403C0.336257 23.9204 0 21.9698 0 20C0 14.6957 2.10714 9.60859 5.85787 5.85786C9.60859 2.10714 14.6957 0 20 0C25.3043 0 30.3914 2.10714 34.1421 5.85786C37.8929 9.60859 40 14.6957 40 20C40 21.9698 39.6637 23.9204 39.0104 25.7403C38.3571 27.5602 37.3995 29.2137 36.1924 30.6066C34.9852 31.9995 33.5521 33.1044 31.9749 33.8582C30.3976 34.612 28.7072 35 27 35H13ZM8.68629 8.68629C11.6869 5.68571 15.7565 4 20 4C24.2435 4 28.3131 5.68571 31.3137 8.68629C34.3143 11.6869 36 15.7565 36 20C36 21.5179 35.7404 23.0107 35.2457 24.3888C34.751 25.7668 34.0376 26.9854 33.1696 27.9869C32.3026 28.9873 31.3045 29.7452 30.25 30.2492C29.1981 30.752 28.0957 31 27 31H13C11.9043 31 10.8019 30.752 9.74999 30.2492C8.69549 29.7452 7.6974 28.9873 6.83037 27.9869C5.96242 26.9854 5.24903 25.7668 4.75433 24.3888C4.25961 23.0107 4 21.5179 4 20C4 15.7565 5.68571 11.6869 8.68629 8.68629Z" fill="#EE6352"/>
<path opacity="0.4" d="M25 25H19.9956C19.6596 24.9997 19.3261 24.9655 19 24.899C18.368 24.77 17.7637 24.5192 17.2222 24.1573C16.3999 23.6079 15.759 22.8271 15.3806 21.9134C15.2579 21.6171 15.1645 21.3112 15.101 21C14.9686 20.3515 14.9657 19.6799 15.0961 19.0245C15.289 18.0546 15.7652 17.1637 16.4645 16.4645C17.1637 15.7652 18.0546 15.289 19.0245 15.0961C19.0549 15.09 19.0852 15.0843 19.1156 15.0788C19.4087 15.0262 19.7047 15 20 15C20.6535 15 21.3038 15.1281 21.9134 15.3806C22.827 15.759 23.6079 16.3999 24.1573 17.2221C24.7068 18.0444 25 19.0111 25 20H21C21 19.8022 20.9414 19.6089 20.8315 19.4444C20.7216 19.28 20.5654 19.1518 20.3827 19.0761C20.2 19.0004 19.9989 18.9806 19.8049 19.0192C19.6109 19.0578 19.4327 19.153 19.2929 19.2929C19.153 19.4327 19.0578 19.6109 19.0192 19.8049C18.9806 19.9989 19.0004 20.2 19.0761 20.3827C19.1518 20.5654 19.28 20.7216 19.4444 20.8315C19.6089 20.9414 19.8022 21 20 21H25C25.1313 21 25.2614 20.9741 25.3827 20.9239C25.504 20.8736 25.6142 20.8 25.7071 20.7071C25.8 20.6142 25.8736 20.504 25.9239 20.3827C25.9741 20.2614 26 20.1313 26 20C26 18.4087 25.3679 16.8826 24.2426 15.7574C23.1174 14.6321 21.5913 14 20 14C19.8274 14 19.6556 14.0074 19.485 14.0221C19.0657 14.0582 18.6535 14.1382 18.255 14.2594C17.8629 14.3785 17.484 14.5376 17.1243 14.734C16.7123 14.959 16.3255 15.233 15.973 15.5522C15.8996 15.6186 15.8277 15.687 15.7574 15.7574C15.2651 16.2496 14.8672 16.8187 14.5753 17.4363C14.4294 17.7451 14.3099 18.066 14.2185 18.3956C14.1139 18.7724 14.0459 19.1604 14.0166 19.5544C14.0056 19.7022 14 19.8508 14 20C14 20.7841 14.1537 21.5646 14.4567 22.2961C14.9109 23.3925 15.6799 24.3295 16.6666 24.9888C16.6722 24.9926 16.6778 24.9963 16.6834 25H15C14.3434 25 13.6932 24.8707 13.0866 24.6194C12.48 24.3681 11.9288 23.9998 11.4645 23.5355C11.0002 23.0712 10.6319 22.52 10.3806 21.9134C10.1293 21.3068 10 20.6566 10 20C10 17.3478 11.0536 14.8043 12.9289 12.9289C14.8043 11.0536 17.3478 10 20 10C22.6522 10 25.1957 11.0536 27.0711 12.9289C28.9464 14.8043 30 17.3478 30 20C30 20.6566 29.8707 21.3068 29.6194 21.9134C29.3681 22.52 28.9998 23.0712 28.5355 23.5355C28.0712 23.9998 27.52 24.3681 26.9134 24.6194C26.3068 24.8707 25.6566 25 25 25Z" fill="#F29C33"/>
</g>
<path d="M54.6582 12.1982H56.7021C56.6611 12.8682 56.4766 13.4629 56.1484 13.9824C55.8249 14.502 55.3714 14.9076 54.7881 15.1992C54.2093 15.4909 53.512 15.6367 52.6963 15.6367C52.0583 15.6367 51.4863 15.5273 50.9805 15.3086C50.4746 15.0853 50.0417 14.7663 49.6816 14.3516C49.3262 13.9368 49.055 13.4355 48.8682 12.8477C48.6813 12.2598 48.5879 11.6012 48.5879 10.8721V10.1816C48.5879 9.45247 48.6836 8.79395 48.875 8.20605C49.071 7.61361 49.349 7.11003 49.709 6.69531C50.0736 6.2806 50.5088 5.96159 51.0146 5.73828C51.5205 5.51497 52.0856 5.40332 52.71 5.40332C53.5394 5.40332 54.2389 5.55371 54.8086 5.85449C55.3828 6.15527 55.8271 6.56999 56.1416 7.09863C56.4606 7.62728 56.652 8.22884 56.7158 8.90332H54.665C54.6423 8.50228 54.5625 8.16276 54.4258 7.88477C54.2891 7.60221 54.0817 7.3903 53.8037 7.24902C53.5303 7.10319 53.1657 7.03027 52.71 7.03027C52.3682 7.03027 52.0697 7.09408 51.8145 7.22168C51.5592 7.34928 51.3451 7.54297 51.1719 7.80273C50.9987 8.0625 50.8688 8.39062 50.7822 8.78711C50.7002 9.17904 50.6592 9.63932 50.6592 10.168V10.8721C50.6592 11.387 50.6979 11.8405 50.7754 12.2324C50.8529 12.6198 50.9714 12.9479 51.1309 13.2168C51.2949 13.4811 51.5046 13.6816 51.7598 13.8184C52.0195 13.9505 52.3317 14.0166 52.6963 14.0166C53.1247 14.0166 53.4779 13.9482 53.7559 13.8115C54.0339 13.6748 54.2458 13.472 54.3916 13.2031C54.542 12.9342 54.6309 12.5993 54.6582 12.1982ZM57.6113 11.877V11.7334C57.6113 11.1911 57.6888 10.6921 57.8438 10.2363C57.9987 9.77604 58.2243 9.37728 58.5205 9.04004C58.8167 8.7028 59.1813 8.44076 59.6143 8.25391C60.0472 8.0625 60.5439 7.9668 61.1045 7.9668C61.665 7.9668 62.1641 8.0625 62.6016 8.25391C63.0391 8.44076 63.4059 8.7028 63.7021 9.04004C64.0029 9.37728 64.2308 9.77604 64.3857 10.2363C64.5407 10.6921 64.6182 11.1911 64.6182 11.7334V11.877C64.6182 12.4147 64.5407 12.9137 64.3857 13.374C64.2308 13.8298 64.0029 14.2285 63.7021 14.5703C63.4059 14.9076 63.0413 15.1696 62.6084 15.3564C62.1755 15.5433 61.6787 15.6367 61.1182 15.6367C60.5576 15.6367 60.0586 15.5433 59.6211 15.3564C59.1882 15.1696 58.8213 14.9076 58.5205 14.5703C58.2243 14.2285 57.9987 13.8298 57.8438 13.374C57.6888 12.9137 57.6113 12.4147 57.6113 11.877ZM59.5801 11.7334V11.877C59.5801 12.1868 59.6074 12.4762 59.6621 12.7451C59.7168 13.014 59.8034 13.251 59.9219 13.4561C60.0449 13.6566 60.2044 13.8138 60.4004 13.9277C60.5964 14.0417 60.8356 14.0986 61.1182 14.0986C61.3916 14.0986 61.6263 14.0417 61.8223 13.9277C62.0182 13.8138 62.1755 13.6566 62.2939 13.4561C62.4124 13.251 62.499 13.014 62.5537 12.7451C62.613 12.4762 62.6426 12.1868 62.6426 11.877V11.7334C62.6426 11.4326 62.613 11.1501 62.5537 10.8857C62.499 10.6169 62.4102 10.3799 62.2871 10.1748C62.1686 9.96517 62.0114 9.80111 61.8154 9.68262C61.6195 9.56413 61.3825 9.50488 61.1045 9.50488C60.8265 9.50488 60.5895 9.56413 60.3936 9.68262C60.2021 9.80111 60.0449 9.96517 59.9219 10.1748C59.8034 10.3799 59.7168 10.6169 59.6621 10.8857C59.6074 11.1501 59.5801 11.4326 59.5801 11.7334ZM65.5137 11.877V11.7334C65.5137 11.1911 65.5911 10.6921 65.7461 10.2363C65.901 9.77604 66.1266 9.37728 66.4229 9.04004C66.7191 8.7028 67.0837 8.44076 67.5166 8.25391C67.9495 8.0625 68.4463 7.9668 69.0068 7.9668C69.5674 7.9668 70.0664 8.0625 70.5039 8.25391C70.9414 8.44076 71.3083 8.7028 71.6045 9.04004C71.9053 9.37728 72.1331 9.77604 72.2881 10.2363C72.443 10.6921 72.5205 11.1911 72.5205 11.7334V11.877C72.5205 12.4147 72.443 12.9137 72.2881 13.374C72.1331 13.8298 71.9053 14.2285 71.6045 14.5703C71.3083 14.9076 70.9437 15.1696 70.5107 15.3564C70.0778 15.5433 69.5811 15.6367 69.0205 15.6367C68.46 15.6367 67.9609 15.5433 67.5234 15.3564C67.0905 15.1696 66.7236 14.9076 66.4229 14.5703C66.1266 14.2285 65.901 13.8298 65.7461 13.374C65.5911 12.9137 65.5137 12.4147 65.5137 11.877ZM67.4824 11.7334V11.877C67.4824 12.1868 67.5098 12.4762 67.5645 12.7451C67.6191 13.014 67.7057 13.251 67.8242 13.4561C67.9473 13.6566 68.1068 13.8138 68.3027 13.9277C68.4987 14.0417 68.738 14.0986 69.0205 14.0986C69.2939 14.0986 69.5286 14.0417 69.7246 13.9277C69.9206 13.8138 70.0778 13.6566 70.1963 13.4561C70.3148 13.251 70.4014 13.014 70.4561 12.7451C70.5153 12.4762 70.5449 12.1868 70.5449 11.877V11.7334C70.5449 11.4326 70.5153 11.1501 70.4561 10.8857C70.4014 10.6169 70.3125 10.3799 70.1895 10.1748C70.071 9.96517 69.9137 9.80111 69.7178 9.68262C69.5218 9.56413 69.2848 9.50488 69.0068 9.50488C68.7288 9.50488 68.4919 9.56413 68.2959 9.68262C68.1045 9.80111 67.9473 9.96517 67.8242 10.1748C67.7057 10.3799 67.6191 10.6169 67.5645 10.8857C67.5098 11.1501 67.4824 11.4326 67.4824 11.7334ZM75.6992 4.99316V15.5H73.7305V4.99316H75.6992ZM80.3613 8.10352L77.1484 11.7676L75.4258 13.5107L74.708 12.0889L76.0752 10.3525L77.9961 8.10352H80.3613ZM78.3174 15.5L76.1299 12.082L77.4902 10.8926L80.5869 15.5H78.3174ZM85.208 13.4561C85.208 13.3148 85.167 13.1872 85.085 13.0732C85.0029 12.9593 84.8503 12.8545 84.627 12.7588C84.4082 12.6585 84.0915 12.5674 83.6768 12.4854C83.3031 12.4033 82.9544 12.3008 82.6309 12.1777C82.3118 12.0501 82.0339 11.8975 81.7969 11.7197C81.5645 11.542 81.3822 11.3324 81.25 11.0908C81.1178 10.8447 81.0518 10.5645 81.0518 10.25C81.0518 9.9401 81.1178 9.64844 81.25 9.375C81.3867 9.10156 81.5804 8.86003 81.8311 8.65039C82.0863 8.4362 82.3962 8.26986 82.7607 8.15137C83.1299 8.02832 83.5446 7.9668 84.0049 7.9668C84.6475 7.9668 85.1989 8.06934 85.6592 8.27441C86.124 8.47949 86.4795 8.76204 86.7256 9.12207C86.9762 9.47754 87.1016 9.88314 87.1016 10.3389H85.1328C85.1328 10.1475 85.0918 9.97656 85.0098 9.82617C84.9323 9.67122 84.8092 9.55046 84.6406 9.46387C84.4766 9.37272 84.2624 9.32715 83.998 9.32715C83.7793 9.32715 83.5902 9.36589 83.4307 9.44336C83.2712 9.51628 83.1481 9.61654 83.0615 9.74414C82.9795 9.86719 82.9385 10.0039 82.9385 10.1543C82.9385 10.2682 82.9613 10.3708 83.0068 10.4619C83.057 10.5485 83.1367 10.6283 83.2461 10.7012C83.3555 10.7741 83.4967 10.8424 83.6699 10.9062C83.8477 10.9655 84.0664 11.0202 84.3262 11.0703C84.8594 11.1797 85.3356 11.3232 85.7549 11.501C86.1742 11.6742 86.5068 11.9111 86.7529 12.2119C86.999 12.5081 87.1221 12.8978 87.1221 13.3809C87.1221 13.709 87.0492 14.0098 86.9033 14.2832C86.7575 14.5566 86.5479 14.7959 86.2744 15.001C86.001 15.2015 85.6729 15.3587 85.29 15.4727C84.9118 15.582 84.4857 15.6367 84.0117 15.6367C83.3236 15.6367 82.7402 15.5137 82.2617 15.2676C81.7878 15.0215 81.4277 14.7093 81.1816 14.3311C80.9401 13.9482 80.8193 13.5563 80.8193 13.1553H82.6855C82.6947 13.4242 82.763 13.6406 82.8906 13.8047C83.0228 13.9688 83.1891 14.0872 83.3896 14.1602C83.5947 14.2331 83.8158 14.2695 84.0527 14.2695C84.3079 14.2695 84.5199 14.2354 84.6885 14.167C84.8571 14.0941 84.9847 13.9984 85.0713 13.8799C85.1624 13.7568 85.208 13.6156 85.208 13.4561ZM51.9443 29.5H49.7773L49.791 27.9004H51.9443C52.4821 27.9004 52.9355 27.7796 53.3047 27.5381C53.6738 27.292 53.9518 26.9342 54.1387 26.4648C54.3301 25.9954 54.4258 25.4281 54.4258 24.7627V24.2773C54.4258 23.7669 54.3711 23.318 54.2617 22.9307C54.1569 22.5433 53.9997 22.2174 53.79 21.9531C53.5804 21.6888 53.3229 21.4906 53.0176 21.3584C52.7122 21.2217 52.3613 21.1533 51.9648 21.1533H49.7363V19.5469H51.9648C52.6302 19.5469 53.2386 19.6608 53.79 19.8887C54.346 20.112 54.8268 20.4333 55.2324 20.8525C55.638 21.2718 55.9502 21.7731 56.1689 22.3564C56.3923 22.9352 56.5039 23.5801 56.5039 24.291V24.7627C56.5039 25.4691 56.3923 26.1139 56.1689 26.6973C55.9502 27.2806 55.638 27.7819 55.2324 28.2012C54.8314 28.6159 54.3506 28.9372 53.79 29.165C53.234 29.3883 52.6188 29.5 51.9443 29.5ZM50.9395 19.5469V29.5H48.8887V19.5469H50.9395ZM61.2754 29.6367C60.7012 29.6367 60.1862 29.5456 59.7305 29.3633C59.2747 29.1764 58.8874 28.9189 58.5684 28.5908C58.2539 28.2627 58.0124 27.8822 57.8438 27.4492C57.6751 27.0117 57.5908 26.5469 57.5908 26.0547V25.7812C57.5908 25.2207 57.6706 24.708 57.8301 24.2432C57.9896 23.7783 58.2174 23.375 58.5137 23.0332C58.8145 22.6914 59.179 22.4294 59.6074 22.2471C60.0358 22.0602 60.5189 21.9668 61.0566 21.9668C61.5807 21.9668 62.0456 22.0534 62.4512 22.2266C62.8568 22.3997 63.1963 22.6458 63.4697 22.9648C63.7477 23.2839 63.9574 23.6667 64.0986 24.1133C64.2399 24.5553 64.3105 25.0475 64.3105 25.5898V26.4102H58.4316V25.0977H62.376V24.9473C62.376 24.6738 62.3258 24.43 62.2256 24.2158C62.1299 23.9971 61.984 23.8239 61.7881 23.6963C61.5921 23.5687 61.3415 23.5049 61.0361 23.5049C60.7764 23.5049 60.5531 23.5618 60.3662 23.6758C60.1794 23.7897 60.0267 23.9492 59.9082 24.1543C59.7943 24.3594 59.7077 24.6009 59.6484 24.8789C59.5938 25.1523 59.5664 25.4531 59.5664 25.7812V26.0547C59.5664 26.3509 59.6074 26.6243 59.6895 26.875C59.776 27.1257 59.8968 27.3421 60.0518 27.5244C60.2113 27.7067 60.4027 27.848 60.626 27.9482C60.8538 28.0485 61.1113 28.0986 61.3984 28.0986C61.7539 28.0986 62.0843 28.0303 62.3896 27.8936C62.6995 27.7523 62.9661 27.5404 63.1895 27.2578L64.1465 28.2969C63.9915 28.5202 63.7796 28.7344 63.5107 28.9395C63.2464 29.1445 62.9274 29.3132 62.5537 29.4453C62.18 29.5729 61.7539 29.6367 61.2754 29.6367ZM67.5098 19V29.5H65.5342V19H67.5098ZM71.2148 22.1035V29.5H69.2393V22.1035H71.2148ZM69.1162 20.1758C69.1162 19.8887 69.2165 19.6517 69.417 19.4648C69.6175 19.278 69.8864 19.1846 70.2236 19.1846C70.5563 19.1846 70.8229 19.278 71.0234 19.4648C71.2285 19.6517 71.3311 19.8887 71.3311 20.1758C71.3311 20.4629 71.2285 20.6999 71.0234 20.8867C70.8229 21.0736 70.5563 21.167 70.2236 21.167C69.8864 21.167 69.6175 21.0736 69.417 20.8867C69.2165 20.6999 69.1162 20.4629 69.1162 20.1758ZM77.5244 22.1035H79.3086V29.2539C79.3086 29.9284 79.1582 30.5003 78.8574 30.9697C78.5612 31.4437 78.1465 31.8014 77.6133 32.043C77.0801 32.2891 76.4603 32.4121 75.7539 32.4121C75.444 32.4121 75.1159 32.3711 74.7695 32.2891C74.4277 32.207 74.0996 32.0794 73.7852 31.9062C73.4753 31.7331 73.2155 31.5143 73.0059 31.25L73.874 30.0879C74.1019 30.3522 74.3662 30.5573 74.667 30.7031C74.9678 30.8535 75.3005 30.9287 75.665 30.9287C76.0205 30.9287 76.3213 30.8626 76.5674 30.7305C76.8135 30.6029 77.0026 30.4137 77.1348 30.1631C77.2669 29.917 77.333 29.6185 77.333 29.2676V23.8125L77.5244 22.1035ZM72.5479 25.8906V25.7471C72.5479 25.182 72.6162 24.6693 72.7529 24.209C72.8942 23.7441 73.0924 23.3454 73.3477 23.0127C73.6074 22.68 73.9219 22.4225 74.291 22.2402C74.6602 22.0579 75.0771 21.9668 75.542 21.9668C76.0342 21.9668 76.4466 22.0579 76.7793 22.2402C77.112 22.4225 77.3854 22.6823 77.5996 23.0195C77.8138 23.3522 77.9801 23.7464 78.0986 24.2021C78.2217 24.6533 78.3174 25.1478 78.3857 25.6855V26C78.3174 26.515 78.2148 26.9935 78.0781 27.4355C77.9414 27.8776 77.7614 28.265 77.5381 28.5977C77.3148 28.9258 77.0368 29.181 76.7041 29.3633C76.376 29.5456 75.984 29.6367 75.5283 29.6367C75.0726 29.6367 74.6602 29.5433 74.291 29.3564C73.9264 29.1696 73.6143 28.9076 73.3545 28.5703C73.0947 28.2331 72.8942 27.8366 72.7529 27.3809C72.6162 26.9251 72.5479 26.4284 72.5479 25.8906ZM74.5166 25.7471V25.8906C74.5166 26.196 74.5462 26.4808 74.6055 26.7451C74.6647 27.0094 74.7559 27.2441 74.8789 27.4492C75.0065 27.6497 75.1637 27.807 75.3506 27.9209C75.542 28.0303 75.7676 28.085 76.0273 28.085C76.3874 28.085 76.6813 28.0098 76.9092 27.8594C77.137 27.7044 77.3079 27.4925 77.4219 27.2236C77.5358 26.9548 77.6019 26.6449 77.6201 26.2939V25.3984C77.611 25.1113 77.5723 24.8538 77.5039 24.626C77.4355 24.3936 77.3398 24.1953 77.2168 24.0312C77.0938 23.8672 76.9342 23.7396 76.7383 23.6484C76.5423 23.5573 76.3099 23.5117 76.041 23.5117C75.7812 23.5117 75.5557 23.571 75.3643 23.6895C75.1774 23.8034 75.0202 23.9606 74.8926 24.1611C74.7695 24.3617 74.6761 24.5986 74.6123 24.8721C74.5485 25.141 74.5166 25.4326 74.5166 25.7471ZM82.7607 19V29.5H80.792V19H82.7607ZM82.4805 25.542H81.9404C81.945 25.027 82.0133 24.5531 82.1455 24.1201C82.2777 23.6826 82.4668 23.3044 82.7129 22.9854C82.959 22.6618 83.2529 22.4111 83.5947 22.2334C83.9411 22.0557 84.3239 21.9668 84.7432 21.9668C85.1077 21.9668 85.4382 22.0192 85.7344 22.124C86.0352 22.2243 86.2926 22.3883 86.5068 22.6162C86.7256 22.8395 86.8942 23.1335 87.0127 23.498C87.1312 23.8626 87.1904 24.3047 87.1904 24.8242V29.5H85.208V24.8105C85.208 24.4824 85.1602 24.2249 85.0645 24.0381C84.9733 23.8467 84.8389 23.7122 84.6611 23.6348C84.488 23.5527 84.2738 23.5117 84.0186 23.5117C83.736 23.5117 83.4945 23.5641 83.2939 23.6689C83.098 23.7738 82.9408 23.9196 82.8223 24.1064C82.7038 24.2887 82.6172 24.5029 82.5625 24.749C82.5078 24.9951 82.4805 25.2594 82.4805 25.542ZM92.3105 22.1035V23.498H88.0039V22.1035H92.3105ZM89.0703 20.2783H91.0391V27.2715C91.0391 27.4857 91.0664 27.6497 91.1211 27.7637C91.1803 27.8776 91.2669 27.9574 91.3809 28.0029C91.4948 28.0439 91.6383 28.0645 91.8115 28.0645C91.9346 28.0645 92.0439 28.0599 92.1396 28.0508C92.2399 28.0371 92.3242 28.0234 92.3926 28.0098L92.3994 29.459C92.2308 29.5137 92.0485 29.557 91.8525 29.5889C91.6566 29.6208 91.4401 29.6367 91.2031 29.6367C90.7702 29.6367 90.3919 29.5661 90.0684 29.4248C89.7493 29.279 89.5033 29.0465 89.3301 28.7275C89.1569 28.4085 89.0703 27.9893 89.0703 27.4697V20.2783Z" fill="#F0EBE1"/>
<defs>
<clipPath id="clip0_570_9">
<rect width="40" height="35" fill="white"/>
</clipPath>
</defs>
</svg>
